<?xml version="1.0" encoding="utf-8"?>
<!-- Generator: Adobe Illustrator 28.0.0, SVG Export Plug-In . SVG Version: 6.00 Build 0)  -->
<svg version="1.0" id="katman_1" xmlns="http://www.w3.org/2000/svg" xmlns:xlink="http://www.w3.org/1999/xlink" x="0px" y="0px"
	 viewBox="0 0 341.89 595.28" style="enable-background:new 0 0 841.89 595.28;" xml:space="preserve">
<style type="text/css">
	.st0{fill-rule:evenodd;clip-rule:evenodd;fill:#0A4F99;}
	.st1{fill-rule:evenodd;clip-rule:evenodd;fill:#6FB1E2;}
	.st2{fill-rule:evenodd;clip-rule:evenodd;fill:#396DB4;}
	<!-- .st3{fill-rule:evenodd;clip-rule:evenodd;fill:#2B2B2B;} -->
</style>
<path class="st0" d="M120.08,345.62c11.49,3.66,23.76-2.21,27.27-13.03l13-42.1c3.51-10.82-3.01-22.67-14.5-26.33l-0.96-0.3
	c-11.49-3.66-23.76,2.21-27.27,13.03l-13,42.1c-3.51,10.82,3.01,22.67,14.5,26.33L120.08,345.62z"/>
<path class="st1" d="M257.28,225.94c2.45-5.93,6.98-10.43,12.3-12.86c0.27-0.12,0.53-0.25,0.8-0.37c0.15-0.06,0.31-0.12,0.46-0.18
	c4.39-1.69,9.23-1.99,13.89-0.51l0.96,0.31c11.49,3.66,17.6,16.76,13.59,29.12c0,0-31.46,106.29-31.49,106.38
	c-8.22,24.47-34.34,37.14-56.82,30.78c0,0-6.06-1.8-8.56-3.6C224.76,370.21,252.82,236.73,257.28,225.94z"/>
<path class="st2" d="M123.72,359.68c4.85,1.54,9.85,1.64,14.59,0.54c0.75-0.16,1.49-0.37,2.21-0.61
	c9.26-2.94,17.22-10.52,20.6-20.92l24.52-80.92c4.05-12.3,16.68-19.37,28.13-15.72l0.96,0.31c11.49,3.66,17.6,16.76,13.59,29.12
	c0,0-23.33,76.68-26.59,83.06c-23.8,43.13-68.52,22.06-81.19,4.01c0.73,0.3,1.46,0.6,2.22,0.84L123.72,359.68z"/>
</svg>
